<svg width="35" height="35" viewBox="0 0 35 35" fill="none" xmlns="http://www.w3.org/2000/svg">
<path d="M5.864 5.852H6.344C6.544 5.852 6.72 5.96 6.872 6.176L8.9 9.092C9.228 8.708 9.548 8.272 9.86 7.784C10.18 7.296 10.416 6.904 10.568 6.608L10.796 6.176C10.932 5.96 11.104 5.852 11.312 5.852H11.804C11.972 5.852 12.056 5.928 12.056 6.08C12.056 6.144 12.024 6.224 11.96 6.32C11.904 6.416 11.8 6.592 11.648 6.848C11.496 7.096 11.196 7.532 10.748 8.156C10.308 8.772 9.884 9.3 9.476 9.74L12.164 13.604C12.212 13.676 12.236 13.744 12.236 13.808C12.236 13.936 12.156 14 11.996 14H11.48C11.248 14 11.056 13.88 10.904 13.64L8.828 10.4C8.54 10.704 8.224 11.128 7.88 11.672C7.544 12.208 7.276 12.672 7.076 13.064L6.776 13.64C6.624 13.88 6.432 14 6.2 14H5.684C5.532 14 5.456 13.936 5.456 13.808C5.456 13.6 5.912 12.848 6.824 11.552C7.264 10.928 7.724 10.328 8.204 9.752L5.66 6.236C5.62 6.18 5.6 6.128 5.6 6.08C5.6 5.928 5.688 5.852 5.864 5.852Z" fill="black"/>
<path d="M24.18 6.008C24.636 5.84 25.112 5.756 25.608 5.756C26.104 5.756 26.576 5.84 27.024 6.008C27.472 6.168 27.884 6.408 28.26 6.728C28.644 7.048 28.948 7.488 29.172 8.048C29.404 8.6 29.52 9.232 29.52 9.944C29.52 10.648 29.404 11.276 29.172 11.828C28.948 12.372 28.644 12.804 28.26 13.124C27.884 13.444 27.472 13.688 27.024 13.856C26.576 14.016 26.104 14.096 25.608 14.096C25.112 14.096 24.636 14.016 24.18 13.856C23.732 13.688 23.316 13.444 22.932 13.124C22.556 12.804 22.256 12.372 22.032 11.828C21.808 11.276 21.696 10.648 21.696 9.944C21.696 9.232 21.808 8.6 22.032 8.048C22.256 7.488 22.556 7.048 22.932 6.728C23.316 6.408 23.732 6.168 24.18 6.008ZM27.624 7.52C27.064 6.96 26.392 6.68 25.608 6.68C24.824 6.68 24.148 6.96 23.58 7.52C23.02 8.08 22.74 8.884 22.74 9.932C22.74 10.972 23.02 11.772 23.58 12.332C24.148 12.892 24.824 13.172 25.608 13.172C26.392 13.172 27.064 12.892 27.624 12.332C28.192 11.772 28.476 10.972 28.476 9.932C28.476 8.884 28.192 8.08 27.624 7.52Z" fill="black"/>
<path d="M8.18 20.008C8.636 19.84 9.112 19.756 9.608 19.756C10.104 19.756 10.576 19.84 11.024 20.008C11.472 20.168 11.884 20.408 12.26 20.728C12.644 21.048 12.948 21.488 13.172 22.048C13.404 22.6 13.52 23.232 13.52 23.944C13.52 24.648 13.404 25.276 13.172 25.828C12.948 26.372 12.644 26.804 12.26 27.124C11.884 27.444 11.472 27.688 11.024 27.856C10.576 28.016 10.104 28.096 9.608 28.096C9.112 28.096 8.636 28.016 8.18 27.856C7.732 27.688 7.316 27.444 6.932 27.124C6.556 26.804 6.256 26.372 6.032 25.828C5.808 25.276 5.696 24.648 5.696 23.944C5.696 23.232 5.808 22.6 6.032 22.048C6.256 21.488 6.556 21.048 6.932 20.728C7.316 20.408 7.732 20.168 8.18 20.008ZM11.624 21.52C11.064 20.96 10.392 20.68 9.608 20.68C8.824 20.68 8.148 20.96 7.58 21.52C7.02 22.08 6.74 22.884 6.74 23.932C6.74 24.972 7.02 25.772 7.58 26.332C8.148 26.892 8.824 27.172 9.608 27.172C10.392 27.172 11.064 26.892 11.624 26.332C12.192 25.772 12.476 24.972 12.476 23.932C12.476 22.884 12.192 22.08 11.624 21.52Z" fill="black"/>
<path d="M21.864 19.852H22.344C22.544 19.852 22.72 19.96 22.872 20.176L24.9 23.092C25.228 22.708 25.548 22.272 25.86 21.784C26.18 21.296 26.416 20.904 26.568 20.608L26.796 20.176C26.932 19.96 27.104 19.852 27.312 19.852H27.804C27.972 19.852 28.056 19.928 28.056 20.08C28.056 20.144 28.024 20.224 27.96 20.32C27.904 20.416 27.8 20.592 27.648 20.848C27.496 21.096 27.196 21.532 26.748 22.156C26.308 22.772 25.884 23.3 25.476 23.74L28.164 27.604C28.212 27.676 28.236 27.744 28.236 27.808C28.236 27.936 28.156 28 27.996 28H27.48C27.248 28 27.056 27.88 26.904 27.64L24.828 24.4C24.54 24.704 24.224 25.128 23.88 25.672C23.544 26.208 23.276 26.672 23.076 27.064L22.776 27.64C22.624 27.88 22.432 28 22.2 28H21.684C21.532 28 21.456 27.936 21.456 27.808C21.456 27.6 21.912 26.848 22.824 25.552C23.264 24.928 23.724 24.328 24.204 23.752L21.66 20.236C21.62 20.18 21.6 20.128 21.6 20.08C21.6 19.928 21.688 19.852 21.864 19.852Z" fill="black"/>
<line x1="16.5" y1="4" x2="16.5" y2="32" stroke="black"/>
<line x1="31" y1="17.5" x2="3" y2="17.5" stroke="black"/>
</svg>
